<svg width="25" height="25" viewBox="0 0 25 25" fill="none" xmlns="http://www.w3.org/2000/svg">
<rect x="0.5" y="0.5" width="24" height="24" rx="4.5" fill="#A8C8E6" stroke="black"/>
<g clip-path="url(#clip0)">
<path d="M17.3125 23C14.1765 23 11.625 20.4485 11.625 17.3125C11.625 14.1765 14.1765 11.625 17.3125 11.625C20.4485 11.625 23 14.1765 23 17.3125C23 20.4485 20.4485 23 17.3125 23ZM17.3125 12.5C14.6586 12.5 12.5 14.6595 12.5 17.3125C12.5 19.9655 14.6586 22.125 17.3125 22.125C19.9664 22.125 22.125 19.9655 22.125 17.3125C22.125 14.6595 19.9664 12.5 17.3125 12.5Z" fill="black"/>
<path d="M17.3125 20.375C17.071 20.375 16.875 20.179 16.875 19.9375V16.4375C16.875 16.196 17.071 16 17.3125 16C17.554 16 17.75 16.196 17.75 16.4375V19.9375C17.75 20.179 17.554 20.375 17.3125 20.375Z" fill="black"/>
<path d="M17.3125 15.125C17.5541 15.125 17.75 14.9291 17.75 14.6875C17.75 14.4459 17.5541 14.25 17.3125 14.25C17.0709 14.25 16.875 14.4459 16.875 14.6875C16.875 14.9291 17.0709 15.125 17.3125 15.125Z" fill="black"/>
<path d="M10.3125 20.375H4.1875C2.98175 20.375 2 19.3941 2 18.1875V6.8125C2 5.60588 2.98175 4.625 4.1875 4.625H5.9375C6.179 4.625 6.375 4.821 6.375 5.0625C6.375 5.304 6.179 5.5 5.9375 5.5H4.1875C3.46387 5.5 2.875 6.08887 2.875 6.8125V18.1875C2.875 18.9111 3.46387 19.5 4.1875 19.5H10.3125C10.554 19.5 10.75 19.696 10.75 19.9375C10.75 20.179 10.554 20.375 10.3125 20.375Z" fill="black"/>
<path d="M12.0625 7.25H6.8125C6.08888 7.25 5.5 6.66113 5.5 5.9375V4.1875C5.5 3.946 5.696 3.75 5.9375 3.75H7.29375C7.49763 2.7525 8.3805 2 9.4375 2C10.4945 2 11.3774 2.7525 11.5813 3.75H12.9375C13.179 3.75 13.375 3.946 13.375 4.1875V5.9375C13.375 6.66113 12.7861 7.25 12.0625 7.25ZM6.375 4.625V5.9375C6.375 6.17812 6.571 6.375 6.8125 6.375H12.0625C12.304 6.375 12.5 6.17812 12.5 5.9375V4.625H11.1875C10.946 4.625 10.75 4.429 10.75 4.1875C10.75 3.46387 10.1611 2.875 9.4375 2.875C8.71388 2.875 8.125 3.46387 8.125 4.1875C8.125 4.429 7.929 4.625 7.6875 4.625H6.375Z" fill="black"/>
<path d="M13.8125 9.875H5.0625C4.821 9.875 4.625 9.679 4.625 9.4375C4.625 9.196 4.821 9 5.0625 9H13.8125C14.054 9 14.25 9.196 14.25 9.4375C14.25 9.679 14.054 9.875 13.8125 9.875Z" fill="black"/>
<path d="M11.1875 12.5H5.0625C4.821 12.5 4.625 12.304 4.625 12.0625C4.625 11.821 4.821 11.625 5.0625 11.625H11.1875C11.429 11.625 11.625 11.821 11.625 12.0625C11.625 12.304 11.429 12.5 11.1875 12.5Z" fill="black"/>
<path d="M9.4375 15.125H5.0625C4.821 15.125 4.625 14.929 4.625 14.6875C4.625 14.446 4.821 14.25 5.0625 14.25H9.4375C9.679 14.25 9.875 14.446 9.875 14.6875C9.875 14.929 9.679 15.125 9.4375 15.125Z" fill="black"/>
<path d="M16.4375 9.875C16.196 9.875 16 9.679 16 9.4375V6.8125C16 6.08887 15.4111 5.5 14.6875 5.5H12.9375C12.696 5.5 12.5 5.304 12.5 5.0625C12.5 4.821 12.696 4.625 12.9375 4.625H14.6875C15.8932 4.625 16.875 5.60588 16.875 6.8125V9.4375C16.875 9.679 16.679 9.875 16.4375 9.875Z" fill="black"/>
</g>
<defs>
<clipPath id="clip0">
<rect width="21" height="21" fill="white" transform="translate(2 2)"/>
</clipPath>
</defs>
</svg>
