<svg width="25" height="26" viewBox="0 0 25 26" fill="none" xmlns="http://www.w3.org/2000/svg">
<rect x="0.499985" y="1.48254" width="24" height="23.9377" rx="4.5" fill="#A8C8E6" stroke="black"/>
<g clip-path="url(#clip0)">
<path d="M17.3125 23.9252C14.1765 23.9252 11.625 21.38 11.625 18.2519C11.625 15.1237 14.1765 12.5786 17.3125 12.5786C20.4485 12.5786 23 15.1237 23 18.2519C23 21.38 20.4485 23.9252 17.3125 23.9252ZM17.3125 13.4514C14.6586 13.4514 12.5 15.6055 12.5 18.2519C12.5 20.8983 14.6586 23.0524 17.3125 23.0524C19.9664 23.0524 22.125 20.8983 22.125 18.2519C22.125 15.6055 19.9664 13.4514 17.3125 13.4514Z" fill="black"/>
<path d="M17.3125 21.3068C17.071 21.3068 16.875 21.1112 16.875 20.8703V17.3791C16.875 17.1382 17.071 16.9427 17.3125 16.9427C17.554 16.9427 17.75 17.1382 17.75 17.3791V20.8703C17.75 21.1112 17.554 21.3068 17.3125 21.3068Z" fill="black"/>
<path d="M17.3125 16.0698C17.5541 16.0698 17.75 15.8745 17.75 15.6334C17.75 15.3924 17.5541 15.197 17.3125 15.197C17.0709 15.197 16.875 15.3924 16.875 15.6334C16.875 15.8745 17.0709 16.0698 17.3125 16.0698Z" fill="black"/>
<path d="M10.3125 21.3067H4.18748C2.98173 21.3067 1.99998 20.3283 1.99998 19.1247V7.77805C1.99998 6.57444 2.98173 5.59601 4.18748 5.59601H5.93748C6.17898 5.59601 6.37498 5.79152 6.37498 6.03242C6.37498 6.27332 6.17898 6.46883 5.93748 6.46883H4.18748C3.46386 6.46883 2.87498 7.05623 2.87498 7.77805V19.1247C2.87498 19.8465 3.46386 20.4339 4.18748 20.4339H10.3125C10.554 20.4339 10.75 20.6294 10.75 20.8703C10.75 21.1112 10.554 21.3067 10.3125 21.3067Z" fill="black"/>
<path d="M12.0625 8.21448H6.81248C6.08886 8.21448 5.49998 7.62707 5.49998 6.90525V5.15961C5.49998 4.91872 5.69598 4.72321 5.93748 4.72321H7.29374C7.49761 3.72819 8.38049 2.97757 9.43749 2.97757C10.4945 2.97757 11.3774 3.72819 11.5812 4.72321H12.9375C13.179 4.72321 13.375 4.91872 13.375 5.15961V6.90525C13.375 7.62707 12.7861 8.21448 12.0625 8.21448ZM6.37498 5.59602V6.90525C6.37498 7.14528 6.57098 7.34166 6.81248 7.34166H12.0625C12.304 7.34166 12.5 7.14528 12.5 6.90525V5.59602H11.1875C10.946 5.59602 10.75 5.40051 10.75 5.15961C10.75 4.43779 10.1611 3.85039 9.43749 3.85039C8.71386 3.85039 8.12499 4.43779 8.12499 5.15961C8.12499 5.40051 7.92899 5.59602 7.68748 5.59602H6.37498Z" fill="black"/>
<path d="M13.8125 10.8329H5.06248C4.82098 10.8329 4.62498 10.6374 4.62498 10.3965C4.62498 10.1556 4.82098 9.96011 5.06248 9.96011H13.8125C14.054 9.96011 14.25 10.1556 14.25 10.3965C14.25 10.6374 14.054 10.8329 13.8125 10.8329Z" fill="black"/>
<path d="M11.1875 13.4514H5.06248C4.82098 13.4514 4.62498 13.2559 4.62498 13.015C4.62498 12.7741 4.82098 12.5786 5.06248 12.5786H11.1875C11.429 12.5786 11.625 12.7741 11.625 13.015C11.625 13.2559 11.429 13.4514 11.1875 13.4514Z" fill="black"/>
<path d="M9.43748 16.0698H5.06248C4.82098 16.0698 4.62498 15.8743 4.62498 15.6334C4.62498 15.3925 4.82098 15.197 5.06248 15.197H9.43748C9.67898 15.197 9.87498 15.3925 9.87498 15.6334C9.87498 15.8743 9.67898 16.0698 9.43748 16.0698Z" fill="black"/>
<path d="M16.4375 10.8329C16.196 10.8329 16 10.6374 16 10.3965V7.77805C16 7.05623 15.4111 6.46883 14.6875 6.46883H12.9375C12.696 6.46883 12.5 6.27332 12.5 6.03242C12.5 5.79152 12.696 5.59601 12.9375 5.59601H14.6875C15.8932 5.59601 16.875 6.57444 16.875 7.77805V10.3965C16.875 10.6374 16.679 10.8329 16.4375 10.8329Z" fill="black"/>
</g>
<defs>
<clipPath id="clip0">
<rect width="21" height="20.9476" fill="white" transform="translate(1.99998 2.97757)"/>
</clipPath>
</defs>
</svg>
