<svg width="25" height="26" viewBox="0 0 25 26" fill="none" xmlns="http://www.w3.org/2000/svg">
<rect x="0.499969" y="1.48254" width="24" height="23.9377" rx="4.5" fill="#A8C8E6" stroke="black"/>
<g clip-path="url(#clip0)">
<path d="M18.2519 13.7054V11.9337C18.2519 9.3491 16.5296 7.15848 14.1699 6.44298V5.64082C14.1699 4.72233 13.4207 3.97507 12.5 3.97507C11.5792 3.97507 10.83 4.72233 10.83 5.64082V6.44298C8.47024 7.15848 6.748 9.34906 6.748 11.9337V13.7054C6.748 15.9757 5.88046 18.1285 4.3052 19.7671C4.15082 19.9277 4.10744 20.1646 4.19495 20.3693C4.28245 20.5739 4.48396 20.7067 4.70698 20.7067H9.77275C10.0313 21.9724 11.1559 22.9277 12.5 22.9277C13.8441 22.9277 14.9685 21.9724 15.2272 20.7067H20.2929C20.5159 20.7067 20.7174 20.5739 20.8049 20.3693C20.8924 20.1646 20.849 19.9277 20.6947 19.7671C19.1194 18.1285 18.2519 15.9757 18.2519 13.7054ZM11.9433 5.64082C11.9433 5.33466 12.193 5.08557 12.5 5.08557C12.8069 5.08557 13.0566 5.33466 13.0566 5.64082V6.22303C12.8734 6.20541 12.6877 6.19608 12.5 6.19608C12.3122 6.19608 12.1265 6.20541 11.9433 6.22303V5.64082ZM12.5 21.8172C11.7743 21.8172 11.1556 21.353 10.9258 20.7067H14.0741C13.8443 21.353 13.2256 21.8172 12.5 21.8172ZM5.90673 19.5962C7.17442 17.9011 7.86128 15.8498 7.86128 13.7054V11.9337C7.86128 9.3823 9.94219 7.30658 12.5 7.30658C15.0577 7.30658 17.1386 9.3823 17.1386 11.9337V13.7054C17.1386 15.8498 17.8255 17.9011 19.0932 19.5962H5.90673Z" fill="black"/>
<path d="M19.7363 11.9337C19.7363 12.2403 19.9855 12.4889 20.2929 12.4889C20.6003 12.4889 20.8496 12.2403 20.8496 11.9337C20.8496 9.70897 19.981 7.61741 18.404 6.0443C18.1867 5.8275 17.8342 5.82746 17.6168 6.0443C17.3994 6.26115 17.3994 6.6127 17.6168 6.82954C18.9836 8.19291 19.7363 10.0056 19.7363 11.9337Z" fill="black"/>
<path d="M4.707 12.4889C5.01441 12.4889 5.26364 12.2403 5.26364 11.9337C5.26364 10.0056 6.01637 8.19295 7.38311 6.82959C7.60049 6.61274 7.60049 6.26119 7.38311 6.04435C7.16576 5.8275 6.81329 5.8275 6.5959 6.04435C5.01887 7.61745 4.15036 9.70898 4.15036 11.9337C4.15036 12.2403 4.39959 12.4889 4.707 12.4889Z" fill="black"/>
</g>
<defs>
<clipPath id="clip0">
<rect width="19" height="18.9526" fill="white" transform="translate(2.99997 3.97507)"/>
</clipPath>
</defs>
</svg>
