<svg width="25" height="25" viewBox="0 0 25 25" fill="none" xmlns="http://www.w3.org/2000/svg">
<rect x="0.5" y="0.5" width="24" height="24" rx="4.5" fill="#A8C8E6" stroke="black"/>
<g clip-path="url(#clip0)">
<path d="M18.252 12.7546V10.9785C18.252 8.38747 16.5297 6.19137 14.17 5.47408V4.66992C14.17 3.74913 13.4208 3 12.5 3C11.5792 3 10.8301 3.74913 10.8301 4.66992V5.47408C8.47034 6.19137 6.74809 8.38743 6.74809 10.9785V12.7546C6.74809 15.0306 5.88055 17.1888 4.30529 18.8315C4.15092 18.9925 4.10754 19.23 4.19504 19.4352C4.28254 19.6403 4.48405 19.7734 4.70707 19.7734H9.77284C10.0314 21.0423 11.156 22 12.5 22C13.8441 22 14.9686 21.0423 15.2272 19.7734H20.293C20.516 19.7734 20.7175 19.6403 20.805 19.4352C20.8925 19.23 20.8491 18.9925 20.6948 18.8315C19.1195 17.1888 18.252 15.0306 18.252 12.7546ZM11.9434 4.66992C11.9434 4.36299 12.1931 4.11328 12.5 4.11328C12.807 4.11328 13.0567 4.36299 13.0567 4.66992V5.25358C12.8735 5.23591 12.6878 5.22656 12.5 5.22656C12.3123 5.22656 12.1266 5.23591 11.9434 5.25358V4.66992ZM12.5 20.8867C11.7744 20.8867 11.1556 20.4213 10.9259 19.7734H14.0742C13.8444 20.4213 13.2257 20.8867 12.5 20.8867ZM5.90682 18.6602C7.17451 16.9608 7.86137 14.9044 7.86137 12.7546V10.9785C7.86137 8.42075 9.94228 6.33984 12.5 6.33984C15.0578 6.33984 17.1387 8.42075 17.1387 10.9785V12.7546C17.1387 14.9044 17.8256 16.9608 19.0933 18.6602H5.90682Z" fill="black"/>
<path d="M19.7364 10.9785C19.7364 11.2859 19.9856 11.5351 20.293 11.5351C20.6004 11.5351 20.8496 11.2859 20.8496 10.9785C20.8496 8.74823 19.9811 6.65144 18.4041 5.0744C18.1868 4.85705 17.8343 4.85702 17.6169 5.0744C17.3995 5.29179 17.3995 5.64422 17.6169 5.8616C18.9837 7.22838 19.7364 9.04559 19.7364 10.9785Z" fill="black"/>
<path d="M4.70703 11.5352C5.01445 11.5352 5.26367 11.2859 5.26367 10.9785C5.26367 9.04563 6.0164 7.22842 7.38314 5.86165C7.60052 5.64426 7.60052 5.29183 7.38314 5.07445C7.16579 4.85706 6.81332 4.85706 6.59594 5.07445C5.0189 6.65148 4.15039 8.74824 4.15039 10.9785C4.15039 11.2859 4.39962 11.5352 4.70703 11.5352Z" fill="black"/>
</g>
<defs>
<clipPath id="clip0">
<rect width="19" height="19" fill="white" transform="translate(3 3)"/>
</clipPath>
</defs>
</svg>
