<svg width="45" height="45" viewBox="0 0 45 45" fill="none" xmlns="http://www.w3.org/2000/svg">
<rect width="45" height="45" rx="6" fill="white"/>
<rect x="4.5" y="4.5" width="16.2" height="15.3" rx="2" fill="#A8C8E6"/>
<rect x="4.5" y="25.2" width="16.2" height="15.3" rx="2" fill="#A8C8E6"/>
<rect x="24.3" y="4.5" width="16.2" height="15.3" rx="2" fill="#A8C8E6"/>
<rect x="24.3" y="25.2" width="16.2" height="15.3" rx="2" fill="#A8C8E6"/>
<path d="M19.8047 22.4131C18.7402 21.9639 17.9639 21.3486 17.4756 20.5674C16.9971 19.7764 16.7578 18.9121 16.7578 17.9746C16.7578 16.373 17.3145 15.0498 18.4277 14.0049C19.5508 12.96 21.1426 12.4375 23.2031 12.4375C25.2441 12.4375 26.8262 12.96 27.9492 14.0049C29.082 15.0498 29.6484 16.373 29.6484 17.9746C29.6484 18.9707 29.3896 19.8594 28.8721 20.6406C28.3545 21.4121 27.627 22.0029 26.6895 22.4131C27.8809 22.8916 28.7842 23.5898 29.3994 24.5078C30.0244 25.4258 30.3369 26.4854 30.3369 27.6865C30.3369 29.6689 29.7021 31.2803 28.4326 32.5205C27.1729 33.7607 25.4932 34.3809 23.3936 34.3809C21.4404 34.3809 19.8145 33.8682 18.5156 32.8428C16.9824 31.6318 16.2158 29.9717 16.2158 27.8623C16.2158 26.7002 16.5039 25.6357 17.0801 24.6689C17.6562 23.6924 18.5645 22.9404 19.8047 22.4131ZM20.6543 18.2676C20.6543 19.0879 20.8838 19.7275 21.3428 20.1865C21.8115 20.6455 22.4316 20.875 23.2031 20.875C23.9844 20.875 24.6094 20.6455 25.0781 20.1865C25.5469 19.7178 25.7812 19.0732 25.7812 18.2529C25.7812 17.4814 25.5469 16.8662 25.0781 16.4072C24.6191 15.9385 24.0088 15.7041 23.2471 15.7041C22.4561 15.7041 21.8262 15.9385 21.3574 16.4072C20.8887 16.876 20.6543 17.4961 20.6543 18.2676ZM20.2734 27.4668C20.2734 28.5996 20.5615 29.4834 21.1377 30.1182C21.7236 30.7529 22.4512 31.0703 23.3203 31.0703C24.1699 31.0703 24.873 30.7676 25.4297 30.1621C25.9863 29.5469 26.2646 28.6631 26.2646 27.5107C26.2646 26.5049 25.9814 25.6992 25.415 25.0938C24.8486 24.4785 24.1309 24.1709 23.2617 24.1709C22.2559 24.1709 21.5039 24.5176 21.0059 25.2109C20.5176 25.9043 20.2734 26.6562 20.2734 27.4668Z" fill="#000001"/>
</svg>
