<svg width="45" height="45" viewBox="0 0 45 45" fill="none" xmlns="http://www.w3.org/2000/svg">
<rect width="45" height="45" rx="6" fill="white"/>
<rect x="4" y="5" width="16.2" height="15.3" rx="2" fill="#005FA0"/>
<rect x="4" y="25.7" width="16.2" height="15.3" rx="2" fill="#005FA0"/>
<rect x="23.8" y="5" width="16.2" height="15.3" rx="2" fill="#005FA0"/>
<rect x="23.8" y="25.7" width="16.2" height="15.3" rx="2" fill="#005FA0"/>
<path d="M29.1758 30.1768V34H14.7471C14.9033 32.5547 15.3721 31.1875 16.1533 29.8984C16.9346 28.5996 18.4775 26.8809 20.7822 24.7422C22.6377 23.0137 23.7754 21.8418 24.1953 21.2266C24.7617 20.377 25.0449 19.5371 25.0449 18.707C25.0449 17.7891 24.7959 17.0859 24.2979 16.5977C23.8096 16.0996 23.1309 15.8506 22.2617 15.8506C21.4023 15.8506 20.7188 16.1094 20.2109 16.627C19.7031 17.1445 19.4102 18.0039 19.332 19.2051L15.2305 18.7949C15.4746 16.5293 16.2412 14.9033 17.5303 13.917C18.8193 12.9307 20.4307 12.4375 22.3643 12.4375C24.4834 12.4375 26.1484 13.0088 27.3594 14.1514C28.5703 15.2939 29.1758 16.7148 29.1758 18.4141C29.1758 19.3809 29 20.3037 28.6484 21.1826C28.3066 22.0518 27.7598 22.9648 27.0078 23.9219C26.5098 24.5566 25.6113 25.4697 24.3125 26.6611C23.0137 27.8525 22.1885 28.6436 21.8369 29.0342C21.4951 29.4248 21.2168 29.8057 21.002 30.1768H29.1758Z" fill="#000001"/>
</svg>
