<svg width="45" height="44" viewBox="0 0 45 44" fill="none" xmlns="http://www.w3.org/2000/svg">
<rect y="-1" width="45" height="45" rx="6" fill="white"/>
<rect x="4" y="4" width="16.2" height="15.3" rx="2" fill="#A8C8E5"/>
<rect x="4" y="24.7" width="16.2" height="15.3" rx="2" fill="#A8C8E5"/>
<rect x="23.8" y="4" width="16.2" height="15.3" rx="2" fill="#A8C8E5"/>
<rect x="23.8" y="24.7" width="16.2" height="15.3" rx="2" fill="#A8C8E5"/>
<path d="M29.1758 29.1768V33H14.7471C14.9033 31.5547 15.3721 30.1875 16.1533 28.8984C16.9346 27.5996 18.4775 25.8809 20.7822 23.7422C22.6377 22.0137 23.7754 20.8418 24.1953 20.2266C24.7617 19.377 25.0449 18.5371 25.0449 17.707C25.0449 16.7891 24.7959 16.0859 24.2979 15.5977C23.8096 15.0996 23.1309 14.8506 22.2617 14.8506C21.4023 14.8506 20.7188 15.1094 20.2109 15.627C19.7031 16.1445 19.4102 17.0039 19.332 18.2051L15.2305 17.7949C15.4746 15.5293 16.2412 13.9033 17.5303 12.917C18.8193 11.9307 20.4307 11.4375 22.3643 11.4375C24.4834 11.4375 26.1484 12.0088 27.3594 13.1514C28.5703 14.2939 29.1758 15.7148 29.1758 17.4141C29.1758 18.3809 29 19.3037 28.6484 20.1826C28.3066 21.0518 27.7598 21.9648 27.0078 22.9219C26.5098 23.5566 25.6113 24.4697 24.3125 25.6611C23.0137 26.8525 22.1885 27.6436 21.8369 28.0342C21.4951 28.4248 21.2168 28.8057 21.002 29.1768H29.1758Z" fill="#000001"/>
</svg>
