<svg width="45" height="45" viewBox="0 0 45 45" fill="none" xmlns="http://www.w3.org/2000/svg">
<rect width="45" height="45" rx="6" fill="white"/>
<rect x="4.5" y="4.5" width="16.2" height="15.3" rx="2" fill="#A8C8E6"/>
<rect x="4.5" y="25.2" width="16.2" height="15.3" rx="2" fill="#A8C8E6"/>
<rect x="24.3" y="4.5" width="16.2" height="15.3" rx="2" fill="#A8C8E6"/>
<rect x="24.3" y="25.2" width="16.2" height="15.3" rx="2" fill="#A8C8E6"/>
<path d="M16.8066 34H12.6904V18.4873C11.1865 19.8936 9.41406 20.9336 7.37305 21.6074V17.8721C8.44727 17.5205 9.61426 16.8564 10.874 15.8799C12.1338 14.8936 12.998 13.7461 13.4668 12.4375H16.8066V34ZM36.9189 17.7842L32.9346 18.2236C32.8369 17.4033 32.583 16.7979 32.1729 16.4072C31.7627 16.0166 31.2305 15.8213 30.5762 15.8213C29.707 15.8213 28.9697 16.2119 28.3643 16.9932C27.7686 17.7744 27.3926 19.4004 27.2363 21.8711C28.2617 20.6602 29.5361 20.0547 31.0596 20.0547C32.7783 20.0547 34.248 20.709 35.4688 22.0176C36.6992 23.3262 37.3145 25.0156 37.3145 27.0859C37.3145 29.2832 36.6699 31.0459 35.3809 32.374C34.0918 33.7021 32.4365 34.3662 30.415 34.3662C28.2471 34.3662 26.4648 33.5264 25.0684 31.8467C23.6719 30.1572 22.9736 27.3936 22.9736 23.5557C22.9736 19.6201 23.7012 16.7832 25.1562 15.0449C26.6113 13.3066 28.501 12.4375 30.8252 12.4375C32.4561 12.4375 33.8037 12.8965 34.8682 13.8145C35.9424 14.7227 36.626 16.0459 36.9189 17.7842ZM27.5879 26.7637C27.5879 28.1016 27.8955 29.1367 28.5107 29.8691C29.126 30.5918 29.8291 30.9531 30.6201 30.9531C31.3818 30.9531 32.0166 30.6553 32.5244 30.0596C33.0322 29.4639 33.2861 28.4873 33.2861 27.1299C33.2861 25.7334 33.0127 24.7129 32.4658 24.0684C31.9189 23.4141 31.2354 23.0869 30.415 23.0869C29.624 23.0869 28.9551 23.3994 28.4082 24.0244C27.8613 24.6396 27.5879 25.5527 27.5879 26.7637Z" fill="#000001"/>
</svg>
