<svg width="45" height="45" viewBox="0 0 45 45" fill="none" xmlns="http://www.w3.org/2000/svg">
<rect width="45" height="45" rx="6" fill="white"/>
<rect x="4.5" y="4.5" width="16.2" height="15.3" rx="2" fill="#005FA0"/>
<rect x="4.5" y="25.2" width="16.2" height="15.3" rx="2" fill="#005FA0"/>
<rect x="24.3" y="4.5" width="16.2" height="15.3" rx="2" fill="#005FA0"/>
<rect x="24.3" y="25.2" width="16.2" height="15.3" rx="2" fill="#005FA0"/>
<path d="M6.12793 28.3018L10.1123 27.8184C10.2393 28.834 10.5811 29.6104 11.1377 30.1475C11.6943 30.6846 12.3682 30.9531 13.1592 30.9531C14.0088 30.9531 14.7217 30.6309 15.2979 29.9863C15.8838 29.3418 16.1768 28.4727 16.1768 27.3789C16.1768 26.3438 15.8984 25.5234 15.3418 24.918C14.7852 24.3125 14.1064 24.0098 13.3057 24.0098C12.7783 24.0098 12.1484 24.1123 11.416 24.3174L11.8701 20.9629C12.9834 20.9922 13.833 20.7529 14.4189 20.2451C15.0049 19.7275 15.2979 19.0439 15.2979 18.1943C15.2979 17.4717 15.083 16.8955 14.6533 16.4658C14.2236 16.0361 13.6523 15.8213 12.9395 15.8213C12.2363 15.8213 11.6357 16.0654 11.1377 16.5537C10.6396 17.042 10.3369 17.7549 10.2295 18.6924L6.43555 18.0479C6.69922 16.749 7.09473 15.7139 7.62207 14.9424C8.15918 14.1611 8.90137 13.5508 9.84863 13.1113C10.8057 12.6621 11.875 12.4375 13.0566 12.4375C15.0781 12.4375 16.6992 13.082 17.9199 14.3711C18.9258 15.4258 19.4287 16.6172 19.4287 17.9453C19.4287 19.8301 18.3984 21.334 16.3379 22.457C17.5684 22.7207 18.5498 23.3115 19.2822 24.2295C20.0244 25.1475 20.3955 26.2559 20.3955 27.5547C20.3955 29.4395 19.707 31.0459 18.3301 32.374C16.9531 33.7021 15.2393 34.3662 13.1885 34.3662C11.2451 34.3662 9.63379 33.8096 8.35449 32.6963C7.0752 31.5732 6.33301 30.1084 6.12793 28.3018ZM36.875 30.1768V34H22.4463C22.6025 32.5547 23.0713 31.1875 23.8525 29.8984C24.6338 28.5996 26.1768 26.8809 28.4814 24.7422C30.3369 23.0137 31.4746 21.8418 31.8945 21.2266C32.4609 20.377 32.7441 19.5371 32.7441 18.707C32.7441 17.7891 32.4951 17.0859 31.9971 16.5977C31.5088 16.0996 30.8301 15.8506 29.9609 15.8506C29.1016 15.8506 28.418 16.1094 27.9102 16.627C27.4023 17.1445 27.1094 18.0039 27.0312 19.2051L22.9297 18.7949C23.1738 16.5293 23.9404 14.9033 25.2295 13.917C26.5186 12.9307 28.1299 12.4375 30.0635 12.4375C32.1826 12.4375 33.8477 13.0088 35.0586 14.1514C36.2695 15.2939 36.875 16.7148 36.875 18.4141C36.875 19.3809 36.6992 20.3037 36.3477 21.1826C36.0059 22.0518 35.459 22.9648 34.707 23.9219C34.209 24.5566 33.3105 25.4697 32.0117 26.6611C30.7129 27.8525 29.8877 28.6436 29.5361 29.0342C29.1943 29.4248 28.916 29.8057 28.7012 30.1768H36.875Z" fill="#000001"/>
</svg>
