<svg width="188" height="73" viewBox="0 0 188 73" fill="none" xmlns="http://www.w3.org/2000/svg">
<path d="M2.016 7.424H4.344V23H2.016V7.424ZM4.392 14.72L11.352 7.424H14.16L7.152 14.624L14.856 23H11.832L4.392 14.72ZM16.641 7.424H27.345V9.056H18.969V14.144H26.553V15.776H18.969V23H16.641V7.424ZM36.1427 23.24C35.2947 23.24 34.5507 23.184 33.9107 23.072C33.2867 22.96 32.6707 22.768 32.0627 22.496C31.4227 22.208 30.9267 21.768 30.5747 21.176C30.2387 20.584 30.0707 19.864 30.0707 19.016V7.424H32.3027V18.992C32.3027 19.968 32.6307 20.664 33.2867 21.08C33.9427 21.48 34.9107 21.68 36.1907 21.68C37.4707 21.68 38.4227 21.48 39.0467 21.08C39.6867 20.664 40.0067 19.968 40.0067 18.992V7.424H42.2387V19.016C42.2387 21.832 40.2067 23.24 36.1427 23.24ZM51.8207 7.424H56.9087C57.6287 7.424 58.2047 7.44 58.6367 7.472C59.0847 7.504 59.5567 7.576 60.0527 7.688C60.5647 7.8 60.9727 7.968 61.2767 8.192C61.5967 8.416 61.8687 8.72 62.0927 9.104C62.3007 9.472 62.4047 9.936 62.4047 10.496V13.736C62.4047 15.032 61.9007 15.968 60.8927 16.544C59.9007 17.104 58.4287 17.384 56.4767 17.384H54.1487V23H51.8207V7.424ZM56.7887 15.92C57.7967 15.92 58.6047 15.736 59.2127 15.368C59.8207 15 60.1247 14.416 60.1247 13.616V10.784C60.1247 10.352 60.0127 10 59.7887 9.728C59.5647 9.44 59.2447 9.24 58.8287 9.128C58.4287 9.032 58.0927 8.968 57.8207 8.936C57.5487 8.904 57.1887 8.888 56.7407 8.888H54.1247V15.92H56.7887ZM68.9402 23.24C67.8362 23.24 66.9802 23.136 66.3722 22.928C65.7802 22.72 65.3482 22.352 65.0762 21.824C64.8202 21.296 64.6922 20.536 64.6922 19.544C64.6922 18.664 64.8122 17.984 65.0522 17.504C65.3082 17.008 65.7322 16.656 66.3242 16.448C66.9322 16.24 67.7882 16.136 68.8922 16.136H72.3722V14.288C72.3722 13.856 72.2842 13.528 72.1082 13.304C71.9482 13.064 71.6682 12.896 71.2682 12.8C70.8842 12.704 70.3162 12.656 69.5642 12.656C68.3642 12.656 67.0362 12.752 65.5802 12.944V11.36C67.1642 11.216 68.5962 11.144 69.8762 11.144C71.2202 11.144 72.2122 11.248 72.8522 11.456C73.4922 11.648 73.9322 11.992 74.1722 12.488C74.4122 12.984 74.5322 13.752 74.5322 14.792V23H72.4442V21.896C72.2682 22.792 71.1002 23.24 68.9402 23.24ZM69.3002 21.824C70.0842 21.824 70.7482 21.768 71.2922 21.656C72.0122 21.512 72.3722 21.176 72.3722 20.648V17.48H69.0362C68.3482 17.48 67.8522 17.536 67.5482 17.648C67.2442 17.744 67.0442 17.936 66.9482 18.224C66.8522 18.512 66.8042 18.976 66.8042 19.616C66.8042 20.192 66.8602 20.64 66.9722 20.96C67.0842 21.264 67.2842 21.488 67.5722 21.632C67.8602 21.76 68.2922 21.824 68.8682 21.824H69.3002ZM83.1503 23.24C82.1583 23.24 81.3823 23.136 80.8223 22.928C80.2623 22.704 79.8543 22.336 79.5983 21.824C79.3583 21.296 79.2383 20.56 79.2383 19.616V12.8H76.6463V11.384H79.2383V7.784H81.4223V11.384H85.5743V12.8H81.4223V19.736C81.4223 20.312 81.4863 20.744 81.6143 21.032C81.7583 21.32 81.9983 21.528 82.3343 21.656C82.6863 21.768 83.1903 21.824 83.8463 21.824C84.0543 21.824 84.6303 21.76 85.5743 21.632V23.048C84.7583 23.176 83.9503 23.24 83.1503 23.24ZM87.9345 7.184H90.0945V9.44H87.9345V7.184ZM87.9345 11.384H90.0945V23H87.9345V11.384ZM98.7368 23.24C95.1848 23.24 93.4088 22.056 93.4088 19.688V15.104C93.4088 13.696 93.8088 12.688 94.6088 12.08C95.4248 11.456 96.7368 11.144 98.5448 11.144C100.257 11.144 101.489 11.44 102.241 12.032C103.009 12.624 103.393 13.648 103.393 15.104V17.672H95.5928V19.424C95.5928 20.224 95.8728 20.8 96.4328 21.152C96.9928 21.504 97.8568 21.68 99.0247 21.68C100.129 21.68 101.433 21.488 102.937 21.104V22.76C101.465 23.08 100.065 23.24 98.7368 23.24ZM101.233 16.256V14.432C101.233 13.728 101.017 13.248 100.585 12.992C100.169 12.72 99.4488 12.584 98.4248 12.584C97.4328 12.584 96.7128 12.72 96.2648 12.992C95.8168 13.248 95.5928 13.728 95.5928 14.432V16.256H101.233ZM106.685 11.384H108.845V12.8C109.069 11.696 110.341 11.144 112.661 11.144C114.149 11.144 115.189 11.416 115.781 11.96C116.389 12.488 116.693 13.328 116.693 14.48V23H114.533V14.6C114.533 14.296 114.509 14.048 114.461 13.856C114.413 13.664 114.317 13.472 114.173 13.28C113.853 12.88 113.141 12.68 112.037 12.68C111.189 12.68 110.533 12.744 110.069 12.872C109.621 12.984 109.301 13.176 109.109 13.448C108.933 13.72 108.845 14.104 108.845 14.6V23H106.685V11.384ZM125.314 23.24C124.322 23.24 123.546 23.136 122.986 22.928C122.426 22.704 122.018 22.336 121.762 21.824C121.522 21.296 121.402 20.56 121.402 19.616V12.8H118.81V11.384H121.402V7.784H123.586V11.384H127.738V12.8H123.586V19.736C123.586 20.312 123.65 20.744 123.778 21.032C123.922 21.32 124.162 21.528 124.498 21.656C124.85 21.768 125.354 21.824 126.01 21.824C126.218 21.824 126.794 21.76 127.738 21.632V23.048C126.922 23.176 126.114 23.24 125.314 23.24ZM2.016 35.424H5.496L10.488 48.384L10.56 48.408L15.288 35.424H18.648V51H16.608V37.824H16.488L11.472 51H9.384L4.224 37.824H4.104V51H2.016V35.424ZM27.4639 51.24C26.4399 51.24 25.6719 51.2 25.1599 51.12C24.6479 51.056 24.1359 50.904 23.6239 50.664C23.0959 50.424 22.7119 50.04 22.4719 49.512C22.2319 48.968 22.1119 48.24 22.1119 47.328V43.296C22.1119 42.576 22.1999 41.944 22.3759 41.4C22.5519 40.856 22.7839 40.432 23.0719 40.128C23.3119 39.856 23.6719 39.648 24.1519 39.504C24.6479 39.344 25.1519 39.24 25.6639 39.192C26.2399 39.16 26.8399 39.144 27.4639 39.144C28.2959 39.144 28.9199 39.168 29.3359 39.216C29.7679 39.248 30.2239 39.328 30.7039 39.456C31.1999 39.6 31.5839 39.816 31.8559 40.104C32.1279 40.392 32.3599 40.808 32.5519 41.352C32.7279 41.912 32.8159 42.56 32.8159 43.296V47.328C32.8159 48.688 32.5039 49.68 31.8799 50.304C31.6239 50.56 31.2559 50.76 30.7759 50.904C30.2959 51.048 29.7999 51.144 29.2879 51.192C28.6799 51.224 28.0719 51.24 27.4639 51.24ZM27.4639 49.824C28.1359 49.824 28.6239 49.808 28.9279 49.776C29.2319 49.744 29.5279 49.656 29.8159 49.512C30.1039 49.384 30.3039 49.176 30.4159 48.888C30.5439 48.584 30.6079 48.168 30.6079 47.64V42.936C30.6079 42.216 30.5199 41.696 30.3439 41.376C30.1679 41.04 29.8639 40.824 29.4319 40.728C29.0159 40.616 28.3599 40.56 27.4639 40.56C26.5679 40.56 25.9039 40.616 25.4719 40.728C25.0559 40.824 24.7599 41.04 24.5839 41.376C24.4079 41.696 24.3199 42.216 24.3199 42.936V47.64C24.3199 48.168 24.3759 48.584 24.4879 48.888C24.6159 49.176 24.8239 49.384 25.1119 49.512C25.3999 49.656 25.6959 49.744 25.9999 49.776C26.3039 49.808 26.7919 49.824 27.4639 49.824ZM36.1845 39.384H38.3445V40.8C38.5685 39.696 39.8405 39.144 42.1605 39.144C43.6485 39.144 44.6885 39.416 45.2805 39.96C45.8885 40.488 46.1925 41.328 46.1925 42.48V51H44.0325V42.6C44.0325 42.296 44.0085 42.048 43.9605 41.856C43.9125 41.664 43.8165 41.472 43.6725 41.28C43.3525 40.88 42.6405 40.68 41.5365 40.68C40.6885 40.68 40.0325 40.744 39.5685 40.872C39.1205 40.984 38.8005 41.176 38.6085 41.448C38.4325 41.72 38.3445 42.104 38.3445 42.6V51H36.1845V39.384ZM49.9423 35.184H52.1023V37.44H49.9423V35.184ZM49.9423 39.384H52.1023V51H49.9423V39.384ZM60.7206 51.24C59.7286 51.24 58.9526 51.136 58.3926 50.928C57.8326 50.704 57.4246 50.336 57.1686 49.824C56.9286 49.296 56.8086 48.56 56.8086 47.616V40.8H54.2166V39.384H56.8086V35.784H58.9926V39.384H63.1446V40.8H58.9926V47.736C58.9926 48.312 59.0566 48.744 59.1846 49.032C59.3286 49.32 59.5686 49.528 59.9046 49.656C60.2566 49.768 60.7606 49.824 61.4166 49.824C61.6246 49.824 62.2006 49.76 63.1446 49.632V51.048C62.3286 51.176 61.5206 51.24 60.7206 51.24ZM70.4248 51.24C69.4008 51.24 68.6328 51.2 68.1208 51.12C67.6088 51.056 67.0968 50.904 66.5848 50.664C66.0568 50.424 65.6728 50.04 65.4328 49.512C65.1928 48.968 65.0728 48.24 65.0728 47.328V43.296C65.0728 42.576 65.1608 41.944 65.3368 41.4C65.5128 40.856 65.7448 40.432 66.0328 40.128C66.2728 39.856 66.6328 39.648 67.1128 39.504C67.6088 39.344 68.1128 39.24 68.6248 39.192C69.2008 39.16 69.8008 39.144 70.4248 39.144C71.2568 39.144 71.8808 39.168 72.2968 39.216C72.7288 39.248 73.1848 39.328 73.6648 39.456C74.1608 39.6 74.5448 39.816 74.8168 40.104C75.0888 40.392 75.3208 40.808 75.5128 41.352C75.6888 41.912 75.7768 42.56 75.7768 43.296V47.328C75.7768 48.688 75.4648 49.68 74.8408 50.304C74.5848 50.56 74.2168 50.76 73.7368 50.904C73.2568 51.048 72.7608 51.144 72.2488 51.192C71.6408 51.224 71.0328 51.24 70.4248 51.24ZM70.4248 49.824C71.0968 49.824 71.5848 49.808 71.8888 49.776C72.1928 49.744 72.4888 49.656 72.7768 49.512C73.0648 49.384 73.2648 49.176 73.3768 48.888C73.5048 48.584 73.5688 48.168 73.5688 47.64V42.936C73.5688 42.216 73.4808 41.696 73.3048 41.376C73.1288 41.04 72.8248 40.824 72.3928 40.728C71.9768 40.616 71.3208 40.56 70.4248 40.56C69.5288 40.56 68.8648 40.616 68.4328 40.728C68.0168 40.824 67.7208 41.04 67.5448 41.376C67.3688 41.696 67.2808 42.216 67.2808 42.936V47.64C67.2808 48.168 67.3368 48.584 67.4488 48.888C67.5768 49.176 67.7848 49.384 68.0728 49.512C68.3608 49.656 68.6568 49.744 68.9608 49.776C69.2648 49.808 69.7528 49.824 70.4248 49.824ZM79.1454 39.384H81.1854V41.28C81.1854 40.912 81.3454 40.568 81.6654 40.248C81.9854 39.912 82.3934 39.648 82.8894 39.456C83.3854 39.248 83.8734 39.144 84.3534 39.144H85.4094V40.992H84.2094C83.1854 40.992 82.4414 41.128 81.9774 41.4C81.5294 41.656 81.3054 42.128 81.3054 42.816V51H79.1454V39.384ZM91.1115 51.24C89.8795 51.24 88.5515 51.144 87.1275 50.952V49.296C88.9995 49.6 90.3435 49.752 91.1595 49.752C92.1835 49.752 92.9195 49.656 93.3675 49.464C93.8155 49.256 94.0395 48.88 94.0395 48.336V47.16C94.0395 46.664 93.8715 46.312 93.5355 46.104C93.1995 45.896 92.6555 45.792 91.9035 45.792H90.5835C89.3835 45.792 88.4635 45.544 87.8235 45.048C87.1995 44.552 86.8875 43.856 86.8875 42.96V41.88C86.8875 40.056 88.6155 39.144 92.0715 39.144C92.3275 39.144 93.5035 39.208 95.5995 39.336V40.896C94.1755 40.672 92.9675 40.56 91.9755 40.56C90.8395 40.56 90.0635 40.672 89.6475 40.896C89.2315 41.12 89.0235 41.496 89.0235 42.024V43.008C89.0235 43.792 89.7355 44.184 91.1595 44.184H92.5035C94.9515 44.184 96.1755 45.096 96.1755 46.92V47.928C96.1755 49.128 95.7595 49.984 94.9275 50.496C94.0955 50.992 92.8235 51.24 91.1115 51.24ZM103.18 35.424H105.604L110.596 48.792H110.812L115.804 35.424H118.108L111.916 51H109.228L103.18 35.424ZM120.349 35.184H122.509V37.44H120.349V35.184ZM120.349 39.384H122.509V51H120.349V39.384ZM131.151 51.24C127.599 51.24 125.823 50.056 125.823 47.688V43.104C125.823 41.696 126.223 40.688 127.023 40.08C127.839 39.456 129.151 39.144 130.959 39.144C132.671 39.144 133.903 39.44 134.655 40.032C135.423 40.624 135.807 41.648 135.807 43.104V45.672H128.007V47.424C128.007 48.224 128.287 48.8 128.847 49.152C129.407 49.504 130.271 49.68 131.439 49.68C132.543 49.68 133.847 49.488 135.351 49.104V50.76C133.879 51.08 132.479 51.24 131.151 51.24ZM133.647 44.256V42.432C133.647 41.728 133.431 41.248 132.999 40.992C132.583 40.72 131.863 40.584 130.839 40.584C129.847 40.584 129.127 40.72 128.679 40.992C128.231 41.248 128.007 41.728 128.007 42.432V44.256H133.647ZM137.515 39.384H139.891L142.723 48.936H142.867L145.603 39.384H148.027L150.859 48.936H151.003L153.739 39.384H155.947L152.131 51H149.563L146.755 41.616L143.995 51H141.427L137.515 39.384ZM163.002 51.24C159.45 51.24 157.674 50.056 157.674 47.688V43.104C157.674 41.696 158.074 40.688 158.874 40.08C159.69 39.456 161.002 39.144 162.81 39.144C164.522 39.144 165.754 39.44 166.506 40.032C167.274 40.624 167.658 41.648 167.658 43.104V45.672H159.858V47.424C159.858 48.224 160.138 48.8 160.698 49.152C161.258 49.504 162.122 49.68 163.29 49.68C164.394 49.68 165.698 49.488 167.202 49.104V50.76C165.73 51.08 164.33 51.24 163.002 51.24ZM165.498 44.256V42.432C165.498 41.728 165.282 41.248 164.85 40.992C164.434 40.72 163.714 40.584 162.69 40.584C161.698 40.584 160.978 40.72 160.53 40.992C160.082 41.248 159.858 41.728 159.858 42.432V44.256H165.498ZM170.95 39.384H172.99V41.28C172.99 40.912 173.15 40.568 173.47 40.248C173.79 39.912 174.198 39.648 174.694 39.456C175.19 39.248 175.678 39.144 176.158 39.144H177.214V40.992H176.014C174.99 40.992 174.246 41.128 173.782 41.4C173.334 41.656 173.11 42.128 173.11 42.816V51H170.95V39.384Z" fill="white"/>
<path d="M1.176 59.914H4.788C7.336 59.914 8.61 60.782 8.61 62.518V66.536C8.61 68.1787 7.34067 69 4.802 69H1.176V59.914ZM4.704 68.076C6.44 68.076 7.308 67.5533 7.308 66.508V62.504C7.308 62.168 7.238 61.8833 7.098 61.65C6.958 61.4167 6.762 61.244 6.51 61.132C6.258 61.0293 5.99667 60.9593 5.726 60.922C5.45533 60.8753 5.138 60.852 4.774 60.852H2.534V68.076H4.704ZM10.594 59.774H11.854V61.09H10.594V59.774ZM10.594 62.224H11.854V69H10.594V62.224ZM16.6013 72.08C15.6773 72.08 14.8979 72.0287 14.2633 71.926V71.03C15.3833 71.1607 16.1999 71.226 16.7133 71.226C17.3573 71.226 17.8239 71.1233 18.1133 70.918C18.4119 70.7127 18.5613 70.372 18.5613 69.896V68.272C18.5426 68.5707 18.3373 68.79 17.9453 68.93C17.5626 69.07 17.0773 69.14 16.4893 69.14C15.7893 69.14 15.2433 69.0747 14.8513 68.944C14.4686 68.8133 14.1933 68.5987 14.0253 68.3C13.8666 68.0013 13.7873 67.5953 13.7873 67.082V64.324C13.7873 63.5213 14.0019 62.9473 14.4313 62.602C14.8699 62.2567 15.5839 62.084 16.5733 62.084C17.7493 62.084 18.4399 62.35 18.6453 62.882V62.224H19.8213V69.644C19.8213 70.2693 19.7046 70.7593 19.4713 71.114C19.2379 71.4687 18.8879 71.716 18.4213 71.856C17.9546 72.0053 17.3479 72.08 16.6013 72.08ZM16.7553 68.3C17.4179 68.3 17.8846 68.2207 18.1553 68.062C18.4259 67.9033 18.5613 67.6047 18.5613 67.166V64.1C18.5613 63.792 18.5099 63.5587 18.4073 63.4C18.3139 63.2413 18.1366 63.1293 17.8753 63.064C17.6139 62.9893 17.2313 62.952 16.7273 62.952C16.2513 62.952 15.8919 62.9847 15.6493 63.05C15.4159 63.1153 15.2526 63.232 15.1593 63.4C15.0753 63.5587 15.0333 63.792 15.0333 64.1V67.166C15.0333 67.4833 15.0799 67.7213 15.1733 67.88C15.2666 68.0387 15.4346 68.1507 15.6773 68.216C15.9199 68.272 16.2793 68.3 16.7553 68.3ZM22.01 59.774H23.27V61.09H22.01V59.774ZM22.01 62.224H23.27V69H22.01V62.224ZM28.2973 69.14C27.7186 69.14 27.2659 69.0793 26.9393 68.958C26.6126 68.8273 26.3746 68.6127 26.2253 68.314C26.0853 68.006 26.0153 67.5767 26.0153 67.026V63.05H24.5033V62.224H26.0153V60.124H27.2893V62.224H29.7113V63.05H27.2893V67.096C27.2893 67.432 27.3266 67.684 27.4013 67.852C27.4853 68.02 27.6253 68.1413 27.8213 68.216C28.0266 68.2813 28.3206 68.314 28.7033 68.314C28.8246 68.314 29.1606 68.2767 29.7113 68.202V69.028C29.2353 69.1027 28.7639 69.14 28.2973 69.14ZM33.1741 69.14C32.5301 69.14 32.0308 69.0793 31.6761 68.958C31.3308 68.8367 31.0788 68.622 30.9201 68.314C30.7708 68.006 30.6961 67.5627 30.6961 66.984C30.6961 66.4707 30.7661 66.074 30.9061 65.794C31.0554 65.5047 31.3028 65.2993 31.6481 65.178C32.0028 65.0567 32.5021 64.996 33.1461 64.996H35.1761V63.918C35.1761 63.666 35.1248 63.4747 35.0221 63.344C34.9288 63.204 34.7654 63.106 34.5321 63.05C34.3081 62.994 33.9768 62.966 33.5381 62.966C32.8381 62.966 32.0634 63.022 31.2141 63.134V62.21C32.1381 62.126 32.9734 62.084 33.7201 62.084C34.5041 62.084 35.0828 62.1447 35.4561 62.266C35.8294 62.378 36.0861 62.5787 36.2261 62.868C36.3661 63.1573 36.4361 63.6053 36.4361 64.212V69H35.2181V68.356C35.1154 68.8787 34.4341 69.14 33.1741 69.14ZM33.3841 68.314C33.8414 68.314 34.2288 68.2813 34.5461 68.216C34.9661 68.132 35.1761 67.936 35.1761 67.628V65.78H33.2301C32.8288 65.78 32.5394 65.8127 32.3621 65.878C32.1848 65.934 32.0681 66.046 32.0121 66.214C31.9561 66.382 31.9281 66.6527 31.9281 67.026C31.9281 67.362 31.9608 67.6233 32.0261 67.81C32.0914 67.9873 32.2081 68.118 32.3761 68.202C32.5441 68.2767 32.7961 68.314 33.1321 68.314H33.3841ZM38.6213 59.2H39.8813V69H38.6213V59.2ZM47.6172 60.866H44.5372V59.914H52.0552V60.866H48.9892V69H47.6172V60.866ZM53.4826 62.224H54.6726V63.33C54.6726 63.1153 54.766 62.9147 54.9526 62.728C55.1393 62.532 55.3773 62.378 55.6666 62.266C55.956 62.1447 56.2406 62.084 56.5206 62.084H57.1366V63.162H56.4366C55.8393 63.162 55.4053 63.2413 55.1346 63.4C54.8733 63.5493 54.7426 63.8247 54.7426 64.226V69H53.4826V62.224ZM60.4768 69.14C59.8328 69.14 59.3335 69.0793 58.9788 68.958C58.6335 68.8367 58.3815 68.622 58.2228 68.314C58.0735 68.006 57.9988 67.5627 57.9988 66.984C57.9988 66.4707 58.0688 66.074 58.2088 65.794C58.3582 65.5047 58.6055 65.2993 58.9508 65.178C59.3055 65.0567 59.8048 64.996 60.4488 64.996H62.4788V63.918C62.4788 63.666 62.4275 63.4747 62.3248 63.344C62.2315 63.204 62.0682 63.106 61.8348 63.05C61.6108 62.994 61.2795 62.966 60.8408 62.966C60.1408 62.966 59.3662 63.022 58.5168 63.134V62.21C59.4408 62.126 60.2762 62.084 61.0228 62.084C61.8068 62.084 62.3855 62.1447 62.7588 62.266C63.1322 62.378 63.3888 62.5787 63.5288 62.868C63.6688 63.1573 63.7388 63.6053 63.7388 64.212V69H62.5208V68.356C62.4182 68.8787 61.7368 69.14 60.4768 69.14ZM60.6868 68.314C61.1442 68.314 61.5315 68.2813 61.8488 68.216C62.2688 68.132 62.4788 67.936 62.4788 67.628V65.78H60.5328C60.1315 65.78 59.8422 65.8127 59.6648 65.878C59.4875 65.934 59.3708 66.046 59.3148 66.214C59.2588 66.382 59.2308 66.6527 59.2308 67.026C59.2308 67.362 59.2635 67.6233 59.3288 67.81C59.3942 67.9873 59.5108 68.118 59.6788 68.202C59.8468 68.2767 60.0988 68.314 60.4348 68.314H60.6868ZM65.924 62.224H67.184V63.05C67.3147 62.406 68.0567 62.084 69.41 62.084C70.278 62.084 70.8847 62.2427 71.23 62.56C71.5847 62.868 71.762 63.358 71.762 64.03V69H70.502V64.1C70.502 63.9227 70.488 63.778 70.46 63.666C70.432 63.554 70.376 63.442 70.292 63.33C70.1054 63.0967 69.69 62.98 69.046 62.98C68.5514 62.98 68.1687 63.0173 67.898 63.092C67.6367 63.1573 67.45 63.2693 67.338 63.428C67.2354 63.5867 67.184 63.8107 67.184 64.1V69H65.924V62.224ZM76.0214 69.14C75.3028 69.14 74.5281 69.084 73.6974 68.972V68.006C74.7894 68.1833 75.5734 68.272 76.0494 68.272C76.6468 68.272 77.0761 68.216 77.3374 68.104C77.5988 67.9827 77.7294 67.7633 77.7294 67.446V66.76C77.7294 66.4707 77.6314 66.2653 77.4354 66.144C77.2394 66.0227 76.9221 65.962 76.4834 65.962H75.7134C75.0134 65.962 74.4768 65.8173 74.1034 65.528C73.7394 65.2387 73.5574 64.8327 73.5574 64.31V63.68C73.5574 62.616 74.5654 62.084 76.5814 62.084C76.7308 62.084 77.4168 62.1213 78.6394 62.196V63.106C77.8088 62.9753 77.1041 62.91 76.5254 62.91C75.8628 62.91 75.4101 62.9753 75.1674 63.106C74.9248 63.2367 74.8034 63.456 74.8034 63.764V64.338C74.8034 64.7953 75.2188 65.024 76.0494 65.024H76.8334C78.2614 65.024 78.9754 65.556 78.9754 66.62V67.208C78.9754 67.908 78.7328 68.4073 78.2474 68.706C77.7621 68.9953 77.0201 69.14 76.0214 69.14ZM81.319 63.05H79.765V62.224H81.319V61.132C81.319 60.3947 81.5243 59.8673 81.935 59.55C82.355 59.2233 82.9897 59.06 83.839 59.06C84.1563 59.06 84.5343 59.0833 84.973 59.13V59.956C84.6183 59.9093 84.2543 59.886 83.881 59.886C83.4143 59.886 83.0783 59.97 82.873 60.138C82.677 60.306 82.579 60.6093 82.579 61.048V62.224H84.833V63.05H82.579V69H81.319V63.05ZM88.9054 69.14C88.308 69.14 87.86 69.1167 87.5614 69.07C87.2627 69.0327 86.964 68.944 86.6654 68.804C86.3574 68.664 86.1334 68.44 85.9934 68.132C85.8534 67.8147 85.7834 67.39 85.7834 66.858V64.506C85.7834 64.086 85.8347 63.7173 85.9374 63.4C86.04 63.0827 86.1754 62.8353 86.3434 62.658C86.4834 62.4993 86.6934 62.378 86.9734 62.294C87.2627 62.2007 87.5567 62.14 87.8554 62.112C88.1914 62.0933 88.5414 62.084 88.9054 62.084C89.3907 62.084 89.7547 62.098 89.9974 62.126C90.2494 62.1447 90.5154 62.1913 90.7954 62.266C91.0847 62.35 91.3087 62.476 91.4674 62.644C91.626 62.812 91.7614 63.0547 91.8734 63.372C91.976 63.6987 92.0274 64.0767 92.0274 64.506V66.858C92.0274 67.6513 91.8454 68.23 91.4814 68.594C91.332 68.7433 91.1174 68.86 90.8374 68.944C90.5574 69.028 90.268 69.084 89.9694 69.112C89.6147 69.1307 89.26 69.14 88.9054 69.14ZM88.9054 68.314C89.2974 68.314 89.582 68.3047 89.7594 68.286C89.9367 68.2673 90.1094 68.216 90.2774 68.132C90.4454 68.0573 90.562 67.936 90.6274 67.768C90.702 67.5907 90.7394 67.348 90.7394 67.04V64.296C90.7394 63.876 90.688 63.5727 90.5854 63.386C90.4827 63.19 90.3054 63.064 90.0534 63.008C89.8107 62.9427 89.428 62.91 88.9054 62.91C88.3827 62.91 87.9954 62.9427 87.7434 63.008C87.5007 63.064 87.328 63.19 87.2254 63.386C87.1227 63.5727 87.0714 63.876 87.0714 64.296V67.04C87.0714 67.348 87.104 67.5907 87.1694 67.768C87.244 67.936 87.3654 68.0573 87.5334 68.132C87.7014 68.216 87.874 68.2673 88.0514 68.286C88.2287 68.3047 88.5134 68.314 88.9054 68.314ZM93.9924 62.224H95.1824V63.33C95.1824 63.1153 95.2757 62.9147 95.4624 62.728C95.6491 62.532 95.8871 62.378 96.1764 62.266C96.4657 62.1447 96.7504 62.084 97.0304 62.084H97.6464V63.162H96.9464C96.3491 63.162 95.9151 63.2413 95.6444 63.4C95.3831 63.5493 95.2524 63.8247 95.2524 64.226V69H93.9924V62.224ZM98.9006 62.224H100.161V63.05C100.291 62.406 101.052 62.084 102.443 62.084C103.572 62.084 104.277 62.392 104.557 63.008C104.641 62.7093 104.893 62.4807 105.313 62.322C105.742 62.1633 106.265 62.084 106.881 62.084C107.721 62.084 108.313 62.2427 108.659 62.56C109.004 62.868 109.177 63.358 109.177 64.03V69H107.917V64.114C107.917 63.9367 107.903 63.792 107.875 63.68C107.847 63.568 107.791 63.456 107.707 63.344C107.52 63.1107 107.105 62.994 106.461 62.994C105.966 62.994 105.597 63.0267 105.355 63.092C105.112 63.1573 104.944 63.2693 104.851 63.428C104.767 63.5867 104.725 63.8153 104.725 64.114V69H103.465V64.114C103.465 63.9367 103.451 63.792 103.423 63.68C103.395 63.568 103.339 63.456 103.255 63.344C103.068 63.1107 102.657 62.994 102.023 62.994C101.509 62.994 101.122 63.0267 100.861 63.092C100.599 63.1573 100.417 63.2693 100.315 63.428C100.212 63.5773 100.161 63.806 100.161 64.114V69H98.9006V62.224ZM113.442 69.14C112.798 69.14 112.298 69.0793 111.944 68.958C111.598 68.8367 111.346 68.622 111.188 68.314C111.038 68.006 110.964 67.5627 110.964 66.984C110.964 66.4707 111.034 66.074 111.174 65.794C111.323 65.5047 111.57 65.2993 111.916 65.178C112.27 65.0567 112.77 64.996 113.414 64.996H115.444V63.918C115.444 63.666 115.392 63.4747 115.29 63.344C115.196 63.204 115.033 63.106 114.8 63.05C114.576 62.994 114.244 62.966 113.806 62.966C113.106 62.966 112.331 63.022 111.482 63.134V62.21C112.406 62.126 113.241 62.084 113.988 62.084C114.772 62.084 115.35 62.1447 115.724 62.266C116.097 62.378 116.354 62.5787 116.494 62.868C116.634 63.1573 116.704 63.6053 116.704 64.212V69H115.486V68.356C115.383 68.8787 114.702 69.14 113.442 69.14ZM113.652 68.314C114.109 68.314 114.496 68.2813 114.814 68.216C115.234 68.132 115.444 67.936 115.444 67.628V65.78H113.498C113.096 65.78 112.807 65.8127 112.63 65.878C112.452 65.934 112.336 66.046 112.28 66.214C112.224 66.382 112.196 66.6527 112.196 67.026C112.196 67.362 112.228 67.6233 112.294 67.81C112.359 67.9873 112.476 68.118 112.644 68.202C112.812 68.2767 113.064 68.314 113.4 68.314H113.652ZM121.731 69.14C121.152 69.14 120.7 69.0793 120.373 68.958C120.046 68.8273 119.808 68.6127 119.659 68.314C119.519 68.006 119.449 67.5767 119.449 67.026V63.05H117.937V62.224H119.449V60.124H120.723V62.224H123.145V63.05H120.723V67.096C120.723 67.432 120.76 67.684 120.835 67.852C120.919 68.02 121.059 68.1413 121.255 68.216C121.46 68.2813 121.754 68.314 122.137 68.314C122.258 68.314 122.594 68.2767 123.145 68.202V69.028C122.669 69.1027 122.198 69.14 121.731 69.14ZM124.522 59.774H125.782V61.09H124.522V59.774ZM124.522 62.224H125.782V69H124.522V62.224ZM130.837 69.14C130.24 69.14 129.792 69.1167 129.493 69.07C129.194 69.0327 128.896 68.944 128.597 68.804C128.289 68.664 128.065 68.44 127.925 68.132C127.785 67.8147 127.715 67.39 127.715 66.858V64.506C127.715 64.086 127.766 63.7173 127.869 63.4C127.972 63.0827 128.107 62.8353 128.275 62.658C128.415 62.4993 128.625 62.378 128.905 62.294C129.194 62.2007 129.488 62.14 129.787 62.112C130.123 62.0933 130.473 62.084 130.837 62.084C131.322 62.084 131.686 62.098 131.929 62.126C132.181 62.1447 132.447 62.1913 132.727 62.266C133.016 62.35 133.24 62.476 133.399 62.644C133.558 62.812 133.693 63.0547 133.805 63.372C133.908 63.6987 133.959 64.0767 133.959 64.506V66.858C133.959 67.6513 133.777 68.23 133.413 68.594C133.264 68.7433 133.049 68.86 132.769 68.944C132.489 69.028 132.2 69.084 131.901 69.112C131.546 69.1307 131.192 69.14 130.837 69.14ZM130.837 68.314C131.229 68.314 131.514 68.3047 131.691 68.286C131.868 68.2673 132.041 68.216 132.209 68.132C132.377 68.0573 132.494 67.936 132.559 67.768C132.634 67.5907 132.671 67.348 132.671 67.04V64.296C132.671 63.876 132.62 63.5727 132.517 63.386C132.414 63.19 132.237 63.064 131.985 63.008C131.742 62.9427 131.36 62.91 130.837 62.91C130.314 62.91 129.927 62.9427 129.675 63.008C129.432 63.064 129.26 63.19 129.157 63.386C129.054 63.5727 129.003 63.876 129.003 64.296V67.04C129.003 67.348 129.036 67.5907 129.101 67.768C129.176 67.936 129.297 68.0573 129.465 68.132C129.633 68.216 129.806 68.2673 129.983 68.286C130.16 68.3047 130.445 68.314 130.837 68.314ZM135.924 62.224H137.184V63.05C137.315 62.406 138.057 62.084 139.41 62.084C140.278 62.084 140.885 62.2427 141.23 62.56C141.585 62.868 141.762 63.358 141.762 64.03V69H140.502V64.1C140.502 63.9227 140.488 63.778 140.46 63.666C140.432 63.554 140.376 63.442 140.292 63.33C140.105 63.0967 139.69 62.98 139.046 62.98C138.551 62.98 138.169 63.0173 137.898 63.092C137.637 63.1573 137.45 63.2693 137.338 63.428C137.235 63.5867 137.184 63.8107 137.184 64.1V69H135.924V62.224ZM150.802 69.14C148.254 69.14 146.98 68.3187 146.98 66.676V62.364C146.98 60.628 148.254 59.76 150.802 59.76C151.67 59.76 152.501 59.8487 153.294 60.026V61.034C152.398 60.81 151.577 60.698 150.83 60.698C150.466 60.698 150.149 60.7213 149.878 60.768C149.607 60.8053 149.346 60.8753 149.094 60.978C148.553 61.2113 148.282 61.6687 148.282 62.35V66.606C148.282 67.6513 149.15 68.174 150.886 68.174C151.633 68.174 152.454 68.062 153.35 67.838V68.874C152.557 69.0513 151.707 69.14 150.802 69.14ZM157.934 69.14C155.862 69.14 154.826 68.4493 154.826 67.068V64.394C154.826 63.5727 155.06 62.9847 155.526 62.63C156.002 62.266 156.768 62.084 157.822 62.084C158.821 62.084 159.54 62.2567 159.978 62.602C160.426 62.9473 160.65 63.5447 160.65 64.394V65.892H156.1V66.914C156.1 67.3807 156.264 67.7167 156.59 67.922C156.917 68.1273 157.421 68.23 158.102 68.23C158.746 68.23 159.507 68.118 160.384 67.894V68.86C159.526 69.0467 158.709 69.14 157.934 69.14ZM159.39 65.066V64.002C159.39 63.5913 159.264 63.3113 159.012 63.162C158.77 63.0033 158.35 62.924 157.752 62.924C157.174 62.924 156.754 63.0033 156.492 63.162C156.231 63.3113 156.1 63.5913 156.1 64.002V65.066H159.39ZM162.571 62.224H163.831V63.05C163.961 62.406 164.703 62.084 166.057 62.084C166.925 62.084 167.531 62.2427 167.877 62.56C168.231 62.868 168.409 63.358 168.409 64.03V69H167.149V64.1C167.149 63.9227 167.135 63.778 167.107 63.666C167.079 63.554 167.023 63.442 166.939 63.33C166.752 63.0967 166.337 62.98 165.693 62.98C165.198 62.98 164.815 63.0173 164.545 63.092C164.283 63.1573 164.097 63.2693 163.985 63.428C163.882 63.5867 163.831 63.8107 163.831 64.1V69H162.571V62.224ZM173.438 69.14C172.859 69.14 172.407 69.0793 172.08 68.958C171.753 68.8273 171.515 68.6127 171.366 68.314C171.226 68.006 171.156 67.5767 171.156 67.026V63.05H169.644V62.224H171.156V60.124H172.43V62.224H174.852V63.05H172.43V67.096C172.43 67.432 172.467 67.684 172.542 67.852C172.626 68.02 172.766 68.1413 172.962 68.216C173.167 68.2813 173.461 68.314 173.844 68.314C173.965 68.314 174.301 68.2767 174.852 68.202V69.028C174.376 69.1027 173.905 69.14 173.438 69.14ZM179.085 69.14C177.013 69.14 175.977 68.4493 175.977 67.068V64.394C175.977 63.5727 176.21 62.9847 176.677 62.63C177.153 62.266 177.918 62.084 178.973 62.084C179.971 62.084 180.69 62.2567 181.129 62.602C181.577 62.9473 181.801 63.5447 181.801 64.394V65.892H177.251V66.914C177.251 67.3807 177.414 67.7167 177.741 67.922C178.067 68.1273 178.571 68.23 179.253 68.23C179.897 68.23 180.657 68.118 181.535 67.894V68.86C180.676 69.0467 179.859 69.14 179.085 69.14ZM180.541 65.066V64.002C180.541 63.5913 180.415 63.3113 180.163 63.162C179.92 63.0033 179.5 62.924 178.903 62.924C178.324 62.924 177.904 63.0033 177.643 63.162C177.381 63.3113 177.251 63.5913 177.251 64.002V65.066H180.541ZM183.721 62.224H184.911V63.33C184.911 63.1153 185.004 62.9147 185.191 62.728C185.378 62.532 185.616 62.378 185.905 62.266C186.194 62.1447 186.479 62.084 186.759 62.084H187.375V63.162H186.675C186.078 63.162 185.644 63.2413 185.373 63.4C185.112 63.5493 184.981 63.8247 184.981 64.226V69H183.721V62.224Z" fill="#D9D9D9"/>
</svg>
