<svg width="40" height="40" viewBox="0 0 40 40" fill="none" xmlns="http://www.w3.org/2000/svg">
<rect width="40" height="40" rx="20" fill="white"/>
<g clip-path="url(#clip0)">
<path d="M31.4233 9.51459H8.57671C7.15593 9.51459 6 10.6705 6 12.093C6 13.5138 7.15593 14.6698 8.57671 14.6698H31.4233C32.8441 14.6698 34 13.5138 34 12.093C34 10.6705 32.8441 9.51459 31.4233 9.51459Z" fill="#015793"/>
<path d="M31.4233 17.4224H8.57671C7.15593 17.4224 6 18.5783 6 20.0009C6 21.4217 7.15593 22.5776 8.57671 22.5776H31.4233C32.8441 22.5776 34 21.4217 34 20.0009C34 18.5783 32.8441 17.4224 31.4233 17.4224Z" fill="#015793"/>
<path d="M31.4233 25.3302H8.57671C7.15593 25.3302 6 26.4862 6 27.9087C6 29.3295 7.15593 30.4854 8.57671 30.4854H31.4233C32.8441 30.4854 34 29.3295 34 27.9087C34 26.4862 32.8441 25.3302 31.4233 25.3302Z" fill="#015793"/>
</g>
<defs>
<clipPath id="clip0">
<rect width="28" height="28" fill="white" transform="translate(6 6)"/>
</clipPath>
</defs>
</svg>
