<svg width="40" height="40" viewBox="0 0 40 40" fill="none" xmlns="http://www.w3.org/2000/svg">
<g clip-path="url(#clip0)">
<path d="M39.4132 30.5496C39.0891 30.5496 38.8264 30.8116 38.8264 31.1349C38.8264 32.3183 37.8612 33.2811 36.6748 33.2811H3.32516C2.13875 33.2811 1.17359 32.3183 1.17359 31.1349V8.76535C1.17359 7.5819 2.13883 6.61915 3.32516 6.61915H21.9866C22.3108 6.61915 22.5734 6.35707 22.5734 6.03382C22.5734 5.71057 22.3108 5.44849 21.9866 5.44849H3.32516C1.49164 5.44849 0 6.93641 0 8.76535V31.1348C0 32.9638 1.49164 34.4517 3.32516 34.4517H36.6748C38.5083 34.4517 39.9999 32.9638 39.9999 31.1348C40 30.8116 39.7373 30.5496 39.4132 30.5496Z" fill="black"/>
<path d="M36.6748 5.44849H24.7798C24.4557 5.44849 24.193 5.71057 24.193 6.03382C24.193 6.35707 24.4557 6.61915 24.7798 6.61915H36.6747C37.861 6.61915 38.8263 7.58198 38.8263 8.76535V28.3276C38.8263 28.6509 39.0889 28.9129 39.4131 28.9129C39.7372 28.9129 39.9999 28.6509 39.9999 28.3276V8.76535C39.9999 6.93641 38.5083 5.44849 36.6748 5.44849Z" fill="black"/>
<path d="M29.5532 23.3747V11.5728C29.5532 10.7337 28.8688 10.051 28.0275 10.051H11.6818C11.3577 10.051 11.095 10.313 11.095 10.6363C11.095 10.9595 11.3577 11.2216 11.6818 11.2216H28.0275C28.2216 11.2216 28.3796 11.3792 28.3796 11.5728V16.5846H25.9852L25.0566 15.6584C24.9015 15.5036 24.6952 15.4183 24.4756 15.4183C24.2561 15.4183 24.0499 15.5036 23.8947 15.6583L21.4341 18.1128L20.4906 17.1717C20.3355 17.0168 20.1291 16.9316 19.9096 16.9316C19.6902 16.9316 19.4839 17.0168 19.3287 17.1716L17.7374 18.7589L13.5106 14.5426C13.3555 14.3878 13.1491 14.3026 12.9297 14.3026C12.7102 14.3026 12.5039 14.3878 12.3488 14.5426L10.3019 16.5844H6.51454V11.5728C6.51454 11.3791 6.67251 11.2215 6.86665 11.2215H8.76352C9.08758 11.2215 9.35032 10.9595 9.35032 10.6362C9.35032 10.313 9.08758 10.0509 8.76352 10.0509H6.86665C6.0254 10.0509 5.34094 10.7335 5.34094 11.5728V23.3746C5.34094 24.2137 6.02532 24.8965 6.86665 24.8965H28.0275C28.8688 24.8965 29.5532 24.2138 29.5532 23.3747ZM6.51454 23.3747V17.7551H10.4477C10.6672 17.7551 10.8736 17.6698 11.0286 17.5151L12.9297 15.6188L17.1566 19.8352C17.3167 19.9948 17.527 20.0747 17.7374 20.0747C17.9477 20.0747 18.1582 19.9948 18.3183 19.8351L19.9096 18.2478L20.8533 19.1891C21.1734 19.5085 21.6946 19.5085 22.015 19.189L24.4756 16.7346L25.2584 17.5154C25.4135 17.6702 25.6199 17.7554 25.8393 17.7554H28.3795V23.3748C28.3795 23.5685 28.2216 23.7261 28.0274 23.7261H6.86665C6.67251 23.7258 6.51454 23.5683 6.51454 23.3747Z" fill="black"/>
<path d="M18.3469 28.8179C18.3469 30.1332 19.4196 31.2032 20.7381 31.2032C22.0566 31.2032 23.1293 30.1331 23.1293 28.8179C23.1293 27.5028 22.0566 26.4327 20.7381 26.4327C19.4196 26.4327 18.3469 27.5027 18.3469 28.8179ZM21.9557 28.8179C21.9557 29.4877 21.4094 30.0325 20.7381 30.0325C20.0667 30.0325 19.5205 29.4876 19.5205 28.8179C19.5205 28.1483 20.0667 27.6034 20.7381 27.6034C21.4094 27.6033 21.9557 28.1482 21.9557 28.8179Z" fill="black"/>
<path d="M9.80143 27.9834C9.4615 27.0786 8.58588 26.4327 7.56158 26.4327C6.24307 26.4327 5.17041 27.5028 5.17041 28.8179C5.17041 30.1331 6.24314 31.2032 7.56158 31.2032C8.58588 31.2032 9.4615 30.5573 9.80143 29.6525C10.1413 30.5573 11.017 31.2032 12.0413 31.2032C13.3598 31.2032 14.4324 30.1331 14.4324 28.8179C14.4324 27.5028 13.3597 26.4327 12.0413 26.4327C11.017 26.4327 10.1413 27.0786 9.80143 27.9834ZM7.56158 30.0325C6.89018 30.0325 6.344 29.4876 6.344 28.8179C6.344 28.1483 6.89025 27.6034 7.56158 27.6034C8.23291 27.6034 8.77916 28.1483 8.77916 28.8179C8.77916 29.4876 8.23299 30.0325 7.56158 30.0325ZM13.2588 28.8179C13.2588 29.4877 12.7126 30.0325 12.0413 30.0325C11.3699 30.0325 10.8237 29.4876 10.8237 28.8179C10.8237 28.1483 11.3699 27.6034 12.0413 27.6034C12.7126 27.6034 13.2588 28.1482 13.2588 28.8179Z" fill="black"/>
</g>
<defs>
<clipPath id="clip0">
<rect width="40" height="39.9002" fill="white"/>
</clipPath>
</defs>
</svg>
