<svg width="40" height="40" viewBox="0 0 40 40" fill="none" xmlns="http://www.w3.org/2000/svg">
<rect width="40" height="40" rx="20" fill="white"/>
<g clip-path="url(#clip0)">
<path d="M20.189 19.8584C22.1479 19.8584 23.8441 19.1559 25.23 17.7697C26.6159 16.3838 27.3185 14.688 27.3185 12.729C27.3185 10.7706 26.6159 9.07461 25.2298 7.68825C23.8436 6.30256 22.1477 5.60001 20.189 5.60001C18.2299 5.60001 16.5342 6.30256 15.1483 7.68847C13.7624 9.07439 13.0596 10.7704 13.0596 12.729C13.0596 14.688 13.7624 16.384 15.1485 17.7699C16.5346 19.1556 18.2306 19.8584 20.189 19.8584Z" fill="#005FA0"/>
<path d="M32.6637 28.3609C32.6237 27.7841 32.5428 27.1549 32.4238 26.4906C32.3037 25.8212 32.149 25.1884 31.9638 24.6101C31.7725 24.0123 31.5124 23.422 31.1908 22.8563C30.857 22.2691 30.465 21.7578 30.0251 21.3371C29.565 20.897 29.0018 20.5431 28.3505 20.285C27.7015 20.0282 26.9822 19.8981 26.2128 19.8981C25.9107 19.8981 25.6184 20.0221 25.0541 20.3895C24.7068 20.6161 24.3005 20.878 23.847 21.1678C23.4593 21.4148 22.934 21.6463 22.2852 21.8559C21.6522 22.0607 21.0095 22.1646 20.3751 22.1646C19.7408 22.1646 19.0983 22.0607 18.4646 21.8559C17.8165 21.6465 17.2912 21.415 16.9039 21.168C16.4547 20.881 16.0482 20.619 15.6957 20.3893C15.132 20.0219 14.8396 19.8979 14.5374 19.8979C13.7678 19.8979 13.0487 20.0282 12.3999 20.2852C11.7491 20.5429 11.1856 20.8968 10.7252 21.3374C10.2855 21.7583 9.89321 22.2694 9.55988 22.8563C9.23853 23.422 8.97837 24.0121 8.78687 24.6103C8.60191 25.1886 8.44722 25.8212 8.32708 26.4906C8.20806 27.154 8.12722 27.7834 8.08724 28.3615C8.04795 28.9279 8.02808 29.5158 8.02808 30.1095C8.02808 31.6546 8.51926 32.9055 9.48784 33.828C10.4445 34.7383 11.7102 35.2001 13.2495 35.2001H27.5021C29.0413 35.2001 30.3067 34.7385 31.2635 33.828C32.2323 32.9061 32.7235 31.655 32.7235 30.1092C32.7233 29.5128 32.7032 28.9245 32.6637 28.3609Z" fill="#005FA0"/>
</g>
<defs>
<clipPath id="clip0">
<rect width="29.6" height="29.6" fill="white" transform="translate(5.59998 5.60001)"/>
</clipPath>
</defs>
</svg>
