<svg width="14" height="14" viewBox="0 0 14 14" fill="none" xmlns="http://www.w3.org/2000/svg">
<g clip-path="url(#clip0)">
<path d="M7.95062 0.950613C4.61589 0.950613 1.9041 3.66526 1.9041 6.99999V7.01999L0.706803 5.21689C0.589644 5.03973 0.349613 4.99115 0.172446 5.10831C-0.00472014 5.22547 -0.053298 5.4655 0.0638604 5.64266L1.80123 8.2573C1.8641 8.35159 1.96411 8.4116 2.07556 8.42589C2.0927 8.42875 2.10699 8.42875 2.12413 8.42875C2.21843 8.42875 2.30987 8.39446 2.38131 8.32873L4.79592 6.15416C4.95308 6.01128 4.96737 5.76839 4.82449 5.60837C4.68162 5.45121 4.43873 5.43692 4.27871 5.5798L2.67564 7.02856V6.99999C2.67564 4.08817 5.04166 1.72214 7.95062 1.72214C10.8596 1.72214 13.2285 4.08817 13.2285 6.99999C13.2285 9.9118 10.8624 12.2778 7.95348 12.2778C6.54472 12.2778 5.21883 11.7292 4.22441 10.7319C4.07296 10.5805 3.83007 10.5805 3.67863 10.7319C3.52718 10.8834 3.52718 11.1262 3.67863 11.2777C4.82163 12.4207 6.33898 13.0494 7.95348 13.0494C11.2853 13.0494 14 10.3376 14 6.99999C14 3.6624 11.2853 0.950613 7.95062 0.950613Z" fill="black"/>
</g>
<defs>
<clipPath id="clip0">
<rect width="14" height="14" fill="white"/>
</clipPath>
</defs>
</svg>
