<svg width="40" height="40" viewBox="0 0 40 40" fill="none" xmlns="http://www.w3.org/2000/svg">
<rect width="40" height="40" rx="20" fill="white"/>
<g clip-path="url(#clip0)">
<path d="M34.9562 16.3516L32.3242 16.017C32.1071 15.3492 31.8398 14.7052 31.5275 14.0934L33.153 12.0004C33.811 11.1534 33.734 9.95781 32.9822 9.22981L30.7772 7.02481C30.0422 6.26601 28.8465 6.19041 27.9981 6.84701L25.9079 8.47241C25.2962 8.16021 24.6522 7.89281 23.983 7.67581L23.6484 5.04801C23.5224 3.99381 22.6278 3.20001 21.568 3.20001H18.432C17.3722 3.20001 16.4776 3.99381 16.3516 5.04381L16.017 7.67581C15.3478 7.89281 14.7038 8.15881 14.092 8.47241L12.0004 6.84701C11.1548 6.19041 9.95915 6.26601 9.22975 7.01781L7.02475 9.22141C6.26595 9.95781 6.18895 11.1534 6.84695 12.0018L8.47235 14.0934C8.15875 14.7052 7.89275 15.3492 7.67575 16.017L5.04795 16.3516C3.99375 16.4776 3.19995 17.3722 3.19995 18.432V21.568C3.19995 22.6278 3.99375 23.5224 5.04375 23.6484L7.67575 23.983C7.89275 24.6508 8.16015 25.2948 8.47235 25.9066L6.84695 27.9996C6.18895 28.8466 6.26595 30.0422 7.01775 30.7702L9.22275 32.9752C9.95915 33.7326 11.1534 33.8082 12.0018 33.1516L14.0934 31.5262C14.7052 31.8398 15.3492 32.1072 16.017 32.3228L16.3516 34.9492C16.4776 36.0062 17.3722 36.8 18.432 36.8H21.568C22.6278 36.8 23.5224 36.0062 23.6484 34.9562L23.983 32.3242C24.6508 32.1072 25.2948 31.8398 25.9066 31.5276L27.9996 33.153C28.8466 33.811 30.0422 33.734 30.7702 32.9822L32.9752 30.7772C33.7339 30.0408 33.811 28.8466 33.153 27.9982L31.5275 25.9066C31.8412 25.2948 32.1085 24.6508 32.3242 23.983L34.9506 23.6484C36.0048 23.5224 36.7985 22.6278 36.7985 21.568V18.432C36.7999 17.3722 36.0062 16.4776 34.9562 16.3516ZM20 27C16.1402 27 13 23.8598 13 20C13 16.1402 16.1402 13 20 13C23.8598 13 27 16.1402 27 20C27 23.8598 23.8598 27 20 27Z" fill="#005FA0"/>
</g>
<defs>
<clipPath id="clip0">
<rect width="33.6" height="33.6" fill="white" transform="translate(3.19995 3.20001)"/>
</clipPath>
</defs>
</svg>
