<svg width="25" height="25" viewBox="0 0 25 25" fill="none" xmlns="http://www.w3.org/2000/svg">
<rect x="0.5" y="0.5" width="24" height="24" rx="4.5" fill="#A8C8E6" stroke="black"/>
<path d="M10.0053 7.90109L9.42472 7.82728C9.37685 7.67997 9.31787 7.53791 9.24899 7.40296L9.60755 6.94126C9.75271 6.75443 9.73572 6.49069 9.56988 6.3301L9.08346 5.84371C8.92132 5.67632 8.65757 5.65965 8.47042 5.80449L8.00933 6.16303C7.87436 6.09416 7.7323 6.03518 7.58468 5.98731L7.51086 5.40765C7.48307 5.1751 7.28572 5 7.05193 5H6.36014C6.12635 5 5.929 5.1751 5.90121 5.40672L5.8274 5.98731C5.67977 6.03518 5.53771 6.09385 5.40275 6.16303L4.94135 5.80449C4.75481 5.65965 4.49106 5.67632 4.33016 5.84216L3.84374 6.32825C3.67635 6.49069 3.65937 6.75443 3.80452 6.94157L4.16308 7.40296C4.0939 7.53791 4.03522 7.67997 3.98735 7.82728L3.40766 7.90109C3.17511 7.92888 3 8.12622 3 8.36V9.05176C3 9.28554 3.17511 9.48288 3.40674 9.51068L3.98735 9.58449C4.03522 9.73179 4.09421 9.87385 4.16308 10.0088L3.80452 10.4705C3.65937 10.6573 3.67635 10.9211 3.8422 11.0817L4.32861 11.5681C4.49106 11.7351 4.7545 11.7518 4.94165 11.607L5.40306 11.2484C5.53802 11.3176 5.68008 11.3766 5.8274 11.4241L5.90121 12.0035C5.929 12.2367 6.12635 12.4118 6.36014 12.4118H7.05193C7.28572 12.4118 7.48307 12.2367 7.51086 12.005L7.58468 11.4245C7.73199 11.3766 7.87406 11.3176 8.00902 11.2487L8.47073 11.6073C8.65757 11.7524 8.92132 11.7354 9.08191 11.5696L9.56833 11.0832C9.73572 10.9208 9.75271 10.6573 9.60755 10.4702L9.24899 10.0088C9.31817 9.87385 9.37716 9.73179 9.42472 9.58449L10.0041 9.51068C10.2367 9.48288 10.4118 9.28554 10.4118 9.05176V8.36C10.4121 8.12622 10.237 7.92888 10.0053 7.90109ZM6.70604 10.25C5.85457 10.25 5.16185 9.55731 5.16185 8.70588C5.16185 7.85446 5.85457 7.16176 6.70604 7.16176C7.5575 7.16176 8.25022 7.85446 8.25022 8.70588C8.25022 9.55731 7.5575 10.25 6.70604 10.25Z" fill="black"/>
<g clip-path="url(#clip0)">
<path d="M14.3932 12.2255C15.3858 12.2255 16.2454 11.8695 16.9477 11.1671C17.65 10.4648 18.0061 9.60543 18.0061 8.61266C18.0061 7.62023 17.65 6.76078 16.9476 6.05823C16.2452 5.35602 15.3857 5 14.3932 5C13.4004 5 12.5411 5.35602 11.8387 6.05835C11.1364 6.76067 10.7803 7.62011 10.7803 8.61266C10.7803 9.60543 11.1364 10.4649 11.8389 11.1672C12.5413 11.8694 13.4007 12.2255 14.3932 12.2255Z" fill="black"/>
<path d="M20.7147 16.5342C20.6945 16.2419 20.6535 15.9231 20.5932 15.5864C20.5323 15.2472 20.4539 14.9265 20.3601 14.6335C20.2631 14.3305 20.1313 14.0314 19.9683 13.7447C19.7992 13.4472 19.6005 13.1881 19.3776 12.9749C19.1445 12.7518 18.8591 12.5725 18.529 12.4417C18.2001 12.3116 17.8356 12.2457 17.4457 12.2457C17.2926 12.2457 17.1445 12.3085 16.8585 12.4947C16.6825 12.6095 16.4766 12.7422 16.2468 12.889C16.0503 13.0142 15.7841 13.1315 15.4554 13.2377C15.1346 13.3415 14.8089 13.3942 14.4874 13.3942C14.1659 13.3942 13.8404 13.3415 13.5192 13.2377C13.1908 13.1317 12.9246 13.0144 12.7283 12.8892C12.5007 12.7437 12.2947 12.611 12.1161 12.4946C11.8304 12.3084 11.6822 12.2455 11.5291 12.2455C11.1391 12.2455 10.7747 12.3116 10.4459 12.4418C10.1161 12.5724 9.83058 12.7517 9.59724 12.975C9.37442 13.1883 9.17564 13.4473 9.00672 13.7447C8.84387 14.0314 8.71204 14.3304 8.61499 14.6336C8.52126 14.9267 8.44287 15.2472 8.38199 15.5864C8.32168 15.9226 8.28071 16.2416 8.26045 16.5345C8.24054 16.8216 8.23047 17.1194 8.23047 17.4203C8.23047 18.2033 8.47938 18.8372 8.97021 19.3047C9.45499 19.766 10.0964 20 10.8765 20H18.0991C18.8791 20 19.5203 19.7661 20.0052 19.3047C20.4961 18.8375 20.745 18.2035 20.745 17.4202C20.7449 17.118 20.7347 16.8198 20.7147 16.5342Z" fill="black"/>
</g>
<defs>
<clipPath id="clip0">
<rect width="15" height="15" fill="white" transform="translate(7 5)"/>
</clipPath>
</defs>
</svg>
